<svg width="24" height="24" viewBox="0 0 24 24" fill="none" xmlns="http://www.w3.org/2000/svg">
<g id="right-arrow (1) 3" clip-path="url(#clip0_114_1997)">
<g id="Group">
<g id="Group_2">
<g id="Group_3">
<g id="Group_4">
<path id="Vector" d="M0.553859 11.5108L23.4462 11.5108C23.7185 11.5108 23.9385 11.7308 23.9385 12.0031C23.9385 12.2754 23.7185 12.4954 23.4462 12.4954L1.74309 12.4954L4.73078 15.4831C4.92309 15.6754 4.92309 15.9877 4.73078 16.18C4.53848 16.3723 4.22617 16.3723 4.03386 16.18L0.20463 12.3508C0.0630909 12.2092 0.0215527 11.9985 0.098476 11.8138C0.175397 11.6308 0.355398 11.5108 0.553859 11.5108Z" fill="#656565"/>
</g>
<g id="Group_5">
<path id="Vector_2" d="M4.38698 7.67648C4.51314 7.67648 4.63929 7.72417 4.73468 7.82109C4.92698 8.0134 4.92698 8.32571 4.73468 8.51802L0.900828 12.3519C0.70852 12.5442 0.396214 12.5442 0.203906 12.3519C0.0115981 12.1596 0.0115981 11.8472 0.203906 11.6549L4.03775 7.82109C4.13467 7.72417 4.26083 7.67648 4.38698 7.67648Z" fill="#656565"/>
</g>
</g>
</g>
</g>
</g>
<defs>
<clipPath id="clip0_114_1997">
<rect width="24" height="24" fill="white" transform="translate(24 24) rotate(180)"/>
</clipPath>
</defs>
</svg>
