<svg width="16" height="16" viewBox="0 0 16 16" fill="none" xmlns="http://www.w3.org/2000/svg">
<g id="check-circle 1">
<path id="Vector" fill-rule="evenodd" clip-rule="evenodd" d="M1.33301 8.00004C1.33301 4.31814 4.31777 1.33337 7.99967 1.33337C9.06281 1.33337 10.0696 1.58271 10.963 2.02671C11.2927 2.19057 11.4272 2.59069 11.2633 2.92041C11.0995 3.25013 10.6993 3.38459 10.3697 3.22073C9.65648 2.86631 8.85234 2.66671 7.99967 2.66671C5.05415 2.66671 2.66634 5.05452 2.66634 8.00004C2.66634 10.9456 5.05415 13.3334 7.99967 13.3334C10.9452 13.3334 13.333 10.9456 13.333 8.00004C13.333 7.79924 13.3219 7.60124 13.3004 7.40664C13.2599 7.04064 13.5239 6.71117 13.8898 6.67077C14.2557 6.63029 14.5852 6.89417 14.6257 7.26011C14.6525 7.50331 14.6663 7.75017 14.6663 8.00004C14.6663 11.6819 11.6815 14.6667 7.99967 14.6667C4.31777 14.6667 1.33301 11.6819 1.33301 8.00004ZM14.4711 2.86197C14.7314 3.12232 14.7314 3.54443 14.4711 3.80478L8.47107 9.80477C8.21074 10.0651 7.78861 10.0651 7.52827 9.80477L5.52827 7.80477C5.26792 7.54444 5.26792 7.12231 5.52827 6.86197C5.78862 6.60162 6.21073 6.60162 6.47108 6.86197L7.99967 8.39057L13.5283 2.86197C13.7886 2.60162 14.2107 2.60162 14.4711 2.86197Z" fill="#F2C94C"/>
</g>
</svg>
