<svg width="69" height="80" viewBox="0 0 69 80" fill="none" xmlns="http://www.w3.org/2000/svg">
<path d="M22.8858 47.0588L27.6674 49.8195L33.509 46.4473L28.7274 43.6866V3.20906L23.177 0L22.6878 0.279546L0.637695 13.011V19.7554L22.8858 6.90156V47.0588Z" fill="#06171E"/>
<path d="M39.8806 3.20906V45.6843L23.177 55.3349L6.47346 45.6843V19.3069L0.637695 22.6733V47.0588L23.177 60.0757L45.7163 47.0588V6.90156L67.9703 19.7554V13.011L45.4309 0L39.8806 3.20906Z" fill="#06171E"/>
<path d="M42.6707 51.7355L36.8291 55.1135L45.4313 60.0757L67.9706 47.0588V22.6732L62.129 19.3069V43.6866L45.4313 53.3372L42.6707 51.7355Z" fill="#06171E"/>
<path d="M15.5244 78.1072H16.1884V80.0001H16.6659V78.1072H17.3299V77.6296H15.5244V78.1072Z" fill="#06171E"/>
<path d="M19.9684 77.6296L19.1123 80.0001H19.6132L19.852 79.3361H20.58L20.8188 80.0001H21.3196L20.4635 77.6296H19.9626H19.9684ZM20.0267 78.8643L20.2189 78.3285L20.4111 78.8643H20.0267Z" fill="#06171E"/>
<path d="M25.0989 78.7654H24.3883V79.243H24.9591C24.8252 79.4177 24.6213 79.5283 24.3883 79.5283C23.9923 79.5283 23.6778 79.208 23.6778 78.8178C23.6778 78.4276 23.9981 78.1072 24.3883 78.1072C24.5747 78.1072 24.7436 78.1771 24.8718 78.2994L25.2037 77.9616C24.9882 77.7578 24.7029 77.6355 24.3883 77.6355C23.736 77.6355 23.2061 78.1655 23.2061 78.8178C23.2061 79.4701 23.736 80.0001 24.3883 80.0001C25.0406 80.0001 25.5706 79.4701 25.5706 78.8178C25.5706 78.8003 25.5706 78.7887 25.5706 78.7712H25.0989V78.7654Z" fill="#06171E"/>
<path d="M28.6466 77.6296H28.1748V80.0001H29.5085V79.5225H28.6466V77.6296Z" fill="#06171E"/>
<path d="M32.0762 77.6296H31.6045V80.0001H32.0762V77.6296Z" fill="#06171E"/>
<path d="M35.6706 79.2138L34.7213 77.6296H34.168V80.0001H34.6397V78.4217L35.5949 80.0001H36.1423V77.6296H35.6706V79.2138Z" fill="#06171E"/>
<path d="M38.2383 80.0001H39.6652V79.5225H38.71V79.0507H39.6652V78.579H38.71V78.1072H39.6652V77.6296H38.2383V80.0001Z" fill="#06171E"/>
<path d="M44.488 78.579H43.626V77.6296H43.1543V80.0001H43.626V79.0507H44.488V80.0001H44.9598V77.6296H44.488V78.579Z" fill="#06171E"/>
<path d="M47.0566 80.0001H48.4836V79.5225H47.5284V79.0507H48.4836V78.579H47.5284V78.1072H48.4836V77.6296H47.0566V80.0001Z" fill="#06171E"/>
<path d="M52.0012 78.3402C52.0012 77.9441 51.6867 77.6296 51.2906 77.6296H50.5801V80.0001H51.0518V79.0507H51.145L51.576 80.0001H52.0944L51.6284 78.9692C51.8497 78.8527 52.0012 78.6139 52.0012 78.346V78.3402ZM51.2906 78.5731H51.0518V78.1014H51.2906C51.4246 78.1014 51.5294 78.2062 51.5294 78.3402C51.5294 78.4741 51.4246 78.5731 51.2906 78.5731Z" fill="#06171E"/>
<path d="M54.1387 80.0001H55.5714V79.5225H54.6104V79.0507H55.5714V78.579H54.6104V78.1072H55.5714V77.6296H54.1387V80.0001Z" fill="#06171E"/>
<path d="M3.84131 69.0681C4.40625 69.0681 4.93042 69.2894 5.31481 69.6505L6.33986 68.6196C5.68755 67.9964 4.80811 67.6121 3.84131 67.6121C1.84364 67.6121 0.212891 69.237 0.212891 71.2405C0.212891 73.244 1.83782 74.8689 3.84131 74.8689C4.80811 74.8689 5.68755 74.4845 6.33986 73.8613L5.31481 72.8363C4.93042 73.1916 4.40625 73.4129 3.84131 73.4129C2.63572 73.4129 1.65727 72.4461 1.65727 71.2405C1.65727 70.0349 2.63572 69.0681 3.84131 69.0681Z" fill="#06171E"/>
<path d="M13.9868 67.6121C11.9892 67.6121 10.3584 69.237 10.3584 71.2405C10.3584 73.244 11.9833 74.8689 13.9868 74.8689C15.9903 74.8689 17.6152 73.244 17.6152 71.2405C17.6152 69.237 15.9903 67.6121 13.9868 67.6121ZM13.9868 73.4187C12.7812 73.4187 11.8028 72.4403 11.8028 71.2347C11.8028 70.0291 12.7812 69.0623 13.9868 69.0623C15.1924 69.0623 16.1592 70.0407 16.1592 71.2347C16.1592 72.4286 15.1808 73.4187 13.9868 73.4187Z" fill="#06171E"/>
<path d="M29.473 74.8689V67.6121H27.9121L25.798 72.9178L23.6722 67.6121H22.1113V74.8689H23.5557V71.2405L25.0117 74.8689H26.5726L28.0286 71.2405V74.8689H29.473Z" fill="#06171E"/>
<path d="M35.9965 67.6123H33.9697V74.8633H35.4141V71.9629H36.0082C37.2021 71.9629 38.1689 70.9844 38.1689 69.7905C38.1689 68.5965 37.2021 67.6064 35.9965 67.6064V67.6123ZM35.9965 70.5127H35.4141V69.0683H35.9965C36.3984 69.0683 36.7245 69.3945 36.7245 69.7963C36.7245 70.1982 36.3984 70.5127 35.9965 70.5127Z" fill="#06171E"/>
<path d="M44.3308 67.6121L41.71 74.8631H43.2533L43.993 72.8363H46.2236L46.9575 74.8631H48.5009L45.88 67.6121H44.3366H44.3308ZM44.5114 71.3803L45.0938 69.7437L45.6878 71.3803H44.5114Z" fill="#06171E"/>
<path d="M57.3941 72.4577L54.4937 67.6121H52.8047V74.8689H54.2491V70.0349L57.1553 74.8689H58.8385V67.6121H57.3941V72.4577Z" fill="#06171E"/>
<path d="M65.7693 69.6214L64.7617 67.6121H63.1484L65.0413 71.4152V74.8689H66.4857V71.4152L68.3843 67.6121H66.7652L65.7693 69.6214Z" fill="#06171E"/>
</svg>
