<svg width="81" height="84" viewBox="0 0 81 84" fill="none" xmlns="http://www.w3.org/2000/svg">
<path d="M4.36215 76.8246C5.32476 76.8246 6.20321 76.4407 6.85546 75.82L5.83499 74.7995C5.451 75.1519 4.93025 75.3728 4.36741 75.3728C3.16284 75.3728 2.18971 74.4102 2.18971 73.2057C2.18971 72.0011 3.16284 71.0385 4.36741 71.0385C4.93025 71.0385 5.45626 71.2594 5.83499 71.6223L6.85546 70.5914C6.20847 69.9707 5.33002 69.5867 4.36215 69.5867C2.36855 69.5867 0.743164 71.2068 0.743164 73.2057C0.743164 75.2045 2.36329 76.8246 4.36215 76.8246Z" fill="#06171E"/>
<path d="M20.0056 73.2108C20.0056 71.2172 18.3854 69.5918 16.3866 69.5918C14.3877 69.5918 12.7676 71.2119 12.7676 73.2108C12.7676 75.2096 14.3877 76.8298 16.3866 76.8298C18.3854 76.8298 20.0056 75.2096 20.0056 73.2108ZM16.3866 75.3885C15.182 75.3885 14.2089 74.4154 14.2089 73.2108C14.2089 72.0062 15.182 71.0436 16.3866 71.0436C17.5911 71.0436 18.5537 72.0167 18.5537 73.2108C18.5537 74.4048 17.5806 75.3885 16.3866 75.3885Z" fill="#06171E"/>
<path d="M33.7403 76.8245V69.5918H32.1885L30.0792 74.8783L27.9593 69.5918H26.4023V76.8245H27.8436V73.2108L29.2954 76.8245H30.8524L32.299 73.2108V76.8245H33.7403Z" fill="#06171E"/>
<path d="M41.577 73.9367H42.1714C43.3655 73.9367 44.3281 72.9636 44.3281 71.7695C44.3281 70.5754 43.3655 69.5918 42.1609 69.5918H40.1357V76.8245H41.577V73.9314V73.9367ZM41.577 71.0436H42.1609C42.5607 71.0436 42.8868 71.3697 42.8868 71.7695C42.8868 72.1693 42.5607 72.4849 42.1609 72.4849H41.577V71.0436Z" fill="#06171E"/>
<path d="M53.9178 69.5918H52.3819L49.7676 76.8245H51.3036L52.04 74.7994H54.265L55.0014 76.8245H56.5374L53.9231 69.5918H53.9178ZM52.5607 73.3528L53.1446 71.7222L53.739 73.3528H52.566H52.5607Z" fill="#06171E"/>
<path d="M68.7621 76.8245V69.5918H67.3209V74.4206L64.4278 69.5918H62.7393V76.8245H64.1805V72.0062L67.0789 76.8245H68.7621Z" fill="#06171E"/>
<path d="M76.5787 69.5918H74.9639L76.8523 73.3791V76.8245H78.2935V73.3791L80.1872 69.5918H78.5723L77.5782 71.5959L76.5787 69.5918Z" fill="#06171E"/>
<path d="M1.57405 82.9894H2.0422V80.3383H2.87857V79.928H0.732422V80.3383H1.57405V82.9894Z" fill="#06171E"/>
<path d="M6.26652 79.928L5.15137 82.9946H5.64582L5.88253 82.3108H7.04502L7.28173 82.9946H7.77092L6.65577 79.928H6.26652ZM6.01403 81.8953L6.45588 80.5539H6.46641L6.90826 81.8953H6.01403Z" fill="#06171E"/>
<path d="M11.1158 80.5907C11.1632 80.5276 11.2315 80.475 11.3104 80.4329C11.3893 80.3908 11.484 80.3698 11.5945 80.3698C11.7418 80.3698 11.868 80.4171 11.9732 80.496C12.0732 80.5854 12.1415 80.6854 12.1784 80.8116H12.6728C12.6255 80.5539 12.5045 80.3382 12.3204 80.1646C12.1363 79.991 11.8943 79.9069 11.5945 79.9016C11.3525 79.9016 11.1526 79.9595 10.9896 80.0752C10.8265 80.1857 10.7055 80.3119 10.6319 80.4539C10.5845 80.5276 10.553 80.6275 10.5267 80.7485C10.5056 80.8695 10.4951 81.1062 10.4951 81.4639C10.4951 81.8216 10.5056 82.053 10.5267 82.174C10.5372 82.2424 10.553 82.295 10.5688 82.3371C10.5845 82.3791 10.6056 82.4212 10.6319 82.4686C10.7055 82.6106 10.8265 82.7368 10.9896 82.842C11.1526 82.9525 11.3525 83.0156 11.5945 83.0209C11.9048 83.0156 12.1678 82.9104 12.373 82.7053C12.5781 82.5001 12.6833 82.2424 12.6886 81.932V81.3061H11.5998V81.7479H12.2257V81.9057C12.2257 82.1004 12.1626 82.2529 12.0469 82.3686C11.9311 82.4896 11.7786 82.5527 11.5998 82.5527C11.4893 82.5527 11.3946 82.5317 11.3157 82.4843C11.2368 82.4475 11.1737 82.3949 11.1211 82.3318C11.0632 82.2634 11.0211 82.1793 11.0001 82.0741C10.9791 81.9689 10.9685 81.7637 10.9685 81.4639C10.9685 81.164 10.9791 80.9589 11.0001 80.8484C11.0211 80.7432 11.058 80.6591 11.1211 80.596L11.1158 80.5907Z" fill="#06171E"/>
<path d="M15.8135 79.928V82.9894H17.7703V82.5528H16.2764V79.928H15.8135Z" fill="#06171E"/>
<path d="M21.252 79.928H20.7891V82.9946H21.252V79.928Z" fill="#06171E"/>
<path d="M26.3178 82.1057H26.3126L24.9239 79.928H24.4873V82.9894H24.9502V80.8117H24.9607L26.3441 82.9894H26.786V79.928H26.3178V82.1057Z" fill="#06171E"/>
<path d="M31.9724 80.3646V79.928H30.0156V82.9894H31.9724V82.5528H30.4785V81.6533H31.7515V81.2378H30.4785V80.3646H31.9724Z" fill="#06171E"/>
<path d="M38.9945 80.0753C38.8314 80.1858 38.7104 80.312 38.6368 80.454C38.5894 80.5277 38.5579 80.6276 38.5316 80.7486C38.5105 80.8696 38.5 81.1063 38.5 81.464C38.5 81.8217 38.5105 82.0531 38.5316 82.1741C38.5421 82.2425 38.5579 82.2951 38.5736 82.3372C38.5894 82.3793 38.6105 82.4213 38.6368 82.4687C38.7104 82.6107 38.8314 82.7369 38.9945 82.8421C39.1575 82.9526 39.3574 83.0157 39.5994 83.021C39.9097 83.0157 40.1727 82.9105 40.3779 82.7054C40.583 82.5002 40.6882 82.2425 40.6935 81.9321V81.3062H39.6046V81.748H40.2306V81.9058C40.2306 82.1005 40.1675 82.253 40.0518 82.3687C39.936 82.4897 39.7835 82.5528 39.6046 82.5528C39.4942 82.5528 39.3995 82.5318 39.3206 82.4845C39.2417 82.4476 39.1786 82.395 39.126 82.3319C39.0681 82.2635 39.026 82.1794 39.005 82.0742C38.9839 81.969 38.9734 81.7638 38.9734 81.464C38.9734 81.1642 38.9839 80.959 39.005 80.8486C39.026 80.7434 39.0628 80.6592 39.126 80.5961C39.1733 80.5329 39.2417 80.4803 39.3206 80.4383C39.3995 80.3962 39.4942 80.3751 39.6046 80.3751C39.7519 80.3751 39.8782 80.4225 39.9834 80.5014C40.0833 80.5908 40.1517 80.6908 40.1885 80.817H40.683C40.6356 80.5592 40.5146 80.3436 40.3305 80.17C40.1464 79.9964 39.9045 79.9122 39.6046 79.907C39.3627 79.907 39.1628 79.9648 38.9997 80.0806L38.9945 80.0753Z" fill="#06171E"/>
<path d="M45.7696 82.4634C45.8222 82.3898 45.859 82.2899 45.8748 82.1689C45.8906 82.0479 45.9011 81.8112 45.9011 81.4588C45.9011 81.1063 45.8906 80.8644 45.8748 80.7434C45.8538 80.6224 45.817 80.5277 45.7696 80.4488C45.696 80.3068 45.5802 80.1805 45.4224 80.0701C45.2594 79.9596 45.0542 79.9017 44.8123 79.8965C44.5703 79.8965 44.3704 79.9543 44.2073 80.0701C44.0443 80.1805 43.9233 80.3068 43.8497 80.4488C43.8023 80.5224 43.7708 80.6224 43.7445 80.7434C43.7234 80.8644 43.7129 81.1011 43.7129 81.4588C43.7129 81.8164 43.7234 82.0479 43.7445 82.1689C43.755 82.2372 43.7708 82.2898 43.7865 82.3319C43.8023 82.374 43.8234 82.4161 43.8497 82.4634C43.9233 82.6055 44.0443 82.7317 44.2073 82.8369C44.3704 82.9474 44.5703 83.0105 44.8123 83.0158C45.0542 83.0105 45.2594 82.9526 45.4224 82.8369C45.5855 82.7317 45.7012 82.6055 45.7696 82.4634ZM45.2857 82.3267C45.2383 82.3898 45.1752 82.4424 45.1016 82.4792C45.0227 82.5266 44.9227 82.5476 44.8123 82.5476C44.7018 82.5476 44.6071 82.5266 44.5282 82.4792C44.4493 82.4424 44.3862 82.3898 44.3336 82.3267C44.2757 82.2583 44.2336 82.1741 44.2126 82.0689C44.1916 81.9637 44.181 81.7586 44.181 81.4588C44.181 81.1589 44.1916 80.9538 44.2126 80.8433C44.2336 80.7381 44.2705 80.6539 44.3336 80.5908C44.3809 80.5277 44.4493 80.4751 44.5282 80.433C44.6071 80.3909 44.7018 80.3699 44.8123 80.3699C44.9227 80.3699 45.0174 80.3962 45.1016 80.433C45.1805 80.4751 45.2383 80.5277 45.2857 80.5908C45.3435 80.6592 45.3856 80.7434 45.4119 80.8433C45.433 80.9538 45.4435 81.1589 45.4435 81.4588C45.4435 81.7586 45.433 81.9637 45.4119 82.0689C45.3909 82.1741 45.3488 82.2636 45.2857 82.3267Z" fill="#06171E"/>
<path d="M50.988 80.3646V79.928H49.0312V82.9894H50.988V82.5528H49.4941V81.6533H50.7671V81.2378H49.4941V80.3646H50.988Z" fill="#06171E"/>
<path d="M54.9172 82.5527C54.5805 82.5527 54.2912 82.4475 54.0492 82.2476L53.7441 82.5948C54.0703 82.8736 54.4595 83.0156 54.9172 83.0156C55.622 83.0051 55.9797 82.7105 55.9955 82.1267C55.9955 81.911 55.9271 81.7164 55.7903 81.5533C55.6536 81.385 55.4432 81.285 55.1539 81.243C55.0066 81.2272 54.8908 81.2061 54.8067 81.1956C54.6541 81.1693 54.5437 81.1167 54.4753 81.0431C54.4069 80.9694 54.3701 80.8905 54.3701 80.8011C54.3701 80.6538 54.4227 80.5434 54.5226 80.4697C54.6173 80.3961 54.7383 80.3645 54.8803 80.3645C55.1539 80.3698 55.4116 80.4487 55.6378 80.6012L55.8955 80.2172C55.6115 80.0121 55.2801 79.9069 54.9014 79.9016C54.5858 79.9016 54.3385 79.9858 54.1649 80.1488C53.9861 80.3119 53.8967 80.5276 53.8967 80.7958C53.8967 81.0168 53.9651 81.2061 54.1071 81.3639C54.2438 81.5165 54.4437 81.6112 54.7067 81.6585C54.854 81.6795 54.9908 81.7006 55.1118 81.7164C55.38 81.7637 55.5116 81.9005 55.5116 82.1267C55.5063 82.4054 55.3064 82.5475 54.9066 82.5527H54.9172Z" fill="#06171E"/>
<path d="M64.8219 82.9894V79.928H64.3538V81.2378H63.1439V79.928H62.6758V82.9894H63.1439V81.6533H64.3538V82.9894H64.8219Z" fill="#06171E"/>
<path d="M70.0085 80.3646V79.928H68.0518V82.9894H70.0085V82.5528H68.5146V81.6533H69.7876V81.2378H68.5146V80.3646H70.0085Z" fill="#06171E"/>
<path d="M73.4961 81.6797H74.0905L74.7217 82.9895H75.274L74.5639 81.6271C74.9532 81.4746 75.153 81.1958 75.1583 80.775C75.1478 80.491 75.0478 80.2753 74.8532 80.1227C74.6901 79.986 74.485 79.9229 74.2273 79.9229H73.0332V82.9895H73.4961V81.6797ZM73.4961 80.3384H74.222C74.3693 80.3384 74.485 80.37 74.5639 80.4331C74.6638 80.5067 74.7165 80.6225 74.7165 80.7803C74.7165 80.9118 74.6744 81.0275 74.5902 81.1169C74.5008 81.2169 74.3745 81.2642 74.201 81.2695H73.4961V80.3384Z" fill="#06171E"/>
<path d="M80.198 80.3646V79.928H78.2412V82.9894H80.198V82.5528H78.7041V81.6533H79.9771V81.2378H78.7041V80.3646H80.198Z" fill="#06171E"/>
<path d="M10.8324 25.3382V25.3645L10.8219 25.4013C10.8114 25.4539 10.8061 25.5065 10.8009 25.5538V25.5643C10.8009 25.5643 10.8009 25.5854 10.8009 25.5959C10.8009 25.6275 10.7904 25.659 10.7904 25.6906L10.7798 25.7695V25.7853L10.7746 25.8116V25.8274V25.8379V25.8431V25.8694V25.8905V25.9063C10.7641 26.0062 10.7483 26.1061 10.7377 26.2061C10.7272 26.2955 10.7167 26.3849 10.7062 26.4744C10.7062 26.5112 10.7009 26.5427 10.6957 26.5743V26.5796C10.6851 26.69 10.6694 26.8005 10.6588 26.9057C10.6483 26.9846 10.6431 27.0688 10.6378 27.1529V27.1634L10.6273 27.2423C10.6273 27.2739 10.622 27.3055 10.6168 27.337C10.6168 27.3686 10.6115 27.4054 10.6062 27.437C10.6062 27.4527 10.6062 27.4738 10.6062 27.4896C10.6062 27.5159 10.6062 27.5422 10.601 27.5685C10.601 27.6 10.601 27.6316 10.5957 27.6684C10.5957 27.6842 10.5957 27.7 10.5957 27.7158C10.5852 27.8262 10.5799 27.9419 10.5694 28.0787C10.5694 28.1418 10.5642 28.1997 10.5589 28.2523C10.5589 28.3101 10.5536 28.3733 10.5484 28.4311V28.4417V28.4522C10.5484 28.4522 10.5484 28.468 10.5484 28.4785C10.5484 28.4943 10.5484 28.5048 10.5484 28.5206V28.5363V28.5574C10.5484 28.6258 10.5431 28.6889 10.5379 28.7573C10.5379 28.7836 10.5379 28.8151 10.5379 28.8414C10.5379 28.9624 10.5273 29.0781 10.5273 29.1939C10.5273 29.2096 10.5273 29.2307 10.5273 29.2517V29.2938C10.5273 29.3885 10.5273 29.4884 10.5273 29.5831V29.6357V29.662V29.7619C10.5273 29.7935 10.5273 29.8198 10.5273 29.8514C10.5273 29.8724 10.5273 29.8935 10.5273 29.9145C10.5273 29.9355 10.5273 29.9566 10.5273 29.9776C10.5273 30.0039 10.5273 30.0355 10.5273 30.0618V30.2354C10.6115 35.9374 12.8997 41.2869 16.9605 45.2899C21.0266 49.3034 26.413 51.5127 32.1255 51.5127C33.0355 51.5127 33.935 51.4548 34.824 51.3444C35.229 51.2918 35.6288 51.2392 36.0286 51.1655C33.0724 49.3771 30.5159 46.9837 28.5065 44.1064C27.7754 43.0649 27.1336 41.9708 26.5813 40.8451C26.4551 40.5926 26.3394 40.3349 26.2236 40.0771C26.2131 40.0508 26.1973 40.0193 26.1868 39.993C24.7876 36.8421 24.0565 33.4283 24.0565 29.9145C24.0565 24.8069 25.5977 19.8992 28.5118 15.7226C29.1798 14.7653 29.911 13.8605 30.7 13.0136C33.2565 10.2573 36.3915 8.12168 39.9263 6.75404C40.9994 6.33849 42.0883 6.00184 43.2034 5.73883C45.055 5.30224 46.9592 5.08657 48.8896 5.08657C53.4029 5.08657 57.7372 6.28588 61.5245 8.53197C61.5245 8.53197 61.5245 8.53197 61.5193 8.52671C61.4877 8.49515 61.4456 8.45833 61.4141 8.42151C61.3667 8.37416 61.3194 8.33208 61.272 8.28474C61.2563 8.26896 61.2405 8.25844 61.23 8.24266L61.2194 8.23214L61.2142 8.22162C61.1721 8.1848 61.1248 8.14272 61.0827 8.10064C61.0353 8.05855 60.9933 8.01647 60.9459 7.96913V7.95861L60.9354 7.94809C60.9354 7.94809 60.9196 7.93231 60.9091 7.92705C60.8565 7.87971 60.8039 7.82711 60.7513 7.77977L60.7408 7.76925L60.6724 7.70612C60.6724 7.70612 60.6513 7.68509 60.6356 7.67456C60.5567 7.60618 60.483 7.5378 60.4094 7.46942C60.32 7.39052 60.2358 7.31687 60.1569 7.24849C60.1306 7.22745 60.1043 7.20115 60.0727 7.18011C60.0149 7.13277 59.957 7.08017 59.8992 7.03283L59.7834 6.93814L59.7203 6.88554L59.673 6.84346L59.6467 6.82242C59.5783 6.76456 59.5099 6.71196 59.4415 6.65409L59.431 6.64358L59.4257 6.63305H59.4152C59.3626 6.58571 59.3153 6.54363 59.2627 6.50681C59.0996 6.37531 58.9313 6.2438 58.763 6.11756V6.1123C58.7156 6.07548 58.6735 6.04392 58.6262 6.0071L58.5683 5.96501L58.5368 5.93871C58.5368 5.93871 58.521 5.92819 58.5157 5.92293C58.5157 5.92293 58.5157 5.92293 58.5105 5.91767L58.5052 5.91241L58.4947 5.90189L58.4 5.83351L58.3632 5.80721L58.2317 5.71253C58.2317 5.71253 58.2054 5.69149 58.1896 5.68097C58.1633 5.66519 58.1423 5.64415 58.116 5.62837L58.0634 5.59154C58.0107 5.55472 57.9634 5.5179 57.9108 5.48108C57.9003 5.47056 57.8845 5.4653 57.874 5.45478L57.8582 5.44426L57.8477 5.43374C57.7214 5.34432 57.6005 5.26015 57.4742 5.17073C57.4164 5.12865 57.3638 5.09183 57.3059 5.04975C57.2901 5.03922 57.2796 5.02871 57.2638 5.02345C57.1796 4.97085 57.0955 4.91298 57.0113 4.85512C57.0113 4.85512 57.0008 4.84986 56.9955 4.8446H56.9903H56.9798C56.9798 4.8446 56.9429 4.8183 56.9272 4.80252C56.864 4.76044 56.8062 4.72362 56.7431 4.6868H56.7325V4.68154H56.722C56.6326 4.61315 56.5379 4.56055 56.4485 4.50269H56.438V4.49743L56.4274 4.48691C56.3328 4.42905 56.2381 4.36593 56.1434 4.31333L55.9909 4.2239C55.9909 4.2239 55.9435 4.19234 55.9225 4.18182C55.8962 4.16604 55.8646 4.145 55.8331 4.12922H55.8278C55.812 4.1187 55.791 4.10818 55.7752 4.09766C55.7068 4.05558 55.6384 4.01876 55.57 3.97668L55.5174 3.94511C55.5174 3.94511 55.4701 3.91882 55.4491 3.90304C55.3859 3.86621 55.3228 3.82939 55.2597 3.79257C55.2544 3.79257 55.2492 3.78731 55.2387 3.78205C54.8126 3.54534 54.3812 3.31389 53.9447 3.09823C53.9341 3.09823 53.9236 3.08771 53.9131 3.08245H53.9026C53.8079 3.02985 53.7132 2.98251 53.6133 2.93516L53.3555 2.81418C53.3555 2.81418 53.3397 2.80366 53.3345 2.80366C53.3345 2.80366 53.324 2.80366 53.3187 2.7984H53.3134C53.0083 2.65112 52.7296 2.53013 52.4613 2.41441H52.456L52.4508 2.40915H52.4455H52.4402C52.3771 2.37759 52.3087 2.35129 52.2456 2.32499L52.2193 2.31447L52.1983 2.30395L52.0826 2.2566C52.0405 2.24082 51.9984 2.22504 51.9563 2.204C51.9353 2.19348 51.9195 2.18822 51.8985 2.18296C51.6091 2.06724 51.3724 1.97255 51.1568 1.89365L51.0253 1.84631H51.0095L50.8727 1.78845C50.5045 1.65695 50.1258 1.52544 49.7418 1.40446C49.7365 1.40446 49.7313 1.40446 49.7207 1.3992C49.6471 1.37816 49.5735 1.35186 49.5051 1.33082C49.4314 1.30978 49.3578 1.28348 49.2789 1.26244C49.2368 1.24666 49.1895 1.23614 49.1474 1.22036C48.9791 1.17301 48.8213 1.12567 48.674 1.08359H48.6687H48.6635C48.6424 1.07833 48.6214 1.07307 48.6003 1.06781C48.5688 1.05729 48.532 1.05203 48.5004 1.04151H48.4794L48.4478 1.02573C48.1322 0.941566 47.8113 0.867925 47.4904 0.789023C47.3011 0.746942 47.1117 0.70486 46.9224 0.662778C46.6015 0.594397 46.2806 0.526015 45.9545 0.468153C45.8335 0.447113 45.7125 0.426071 45.5915 0.40503H45.5863C45.4653 0.383989 45.3443 0.362951 45.2233 0.34717C45.1655 0.33665 45.1129 0.331388 45.055 0.320868C44.9866 0.310347 44.913 0.299828 44.8446 0.289308C44.4974 0.241967 44.1502 0.199885 43.8031 0.163063C43.1298 0.0946815 42.4565 0.0473399 41.7779 0.0210391C41.3992 0.00525863 41.0257 0 40.647 0C40.0105 0 39.3793 0.0210401 38.7428 0.0631213C38.6744 0.0631213 38.6113 0.0683817 38.5429 0.0736418C37.8433 0.120983 37.1437 0.194625 36.4546 0.289308C36.3284 0.305089 36.2074 0.326128 36.0812 0.341909C36.0812 0.341909 36.0759 0.341909 36.0707 0.341909L11.0218 25.3908V25.4013L10.8324 25.3382Z" fill="#06171E"/>
<path d="M70.1029 34.4489V34.4278L70.1082 34.4015C70.1134 34.3594 70.1187 34.3173 70.124 34.2753V34.2647V34.249V34.2332C70.1345 34.1806 70.145 34.1227 70.1503 34.0649V34.028L70.1608 33.9912C70.1608 33.9754 70.1608 33.9544 70.1713 33.9386L70.1923 33.7493L70.2081 33.623C70.2239 33.4968 70.2397 33.381 70.2502 33.2653V33.2495C70.266 33.1391 70.2765 33.0339 70.287 32.9287C70.2976 32.8392 70.3028 32.7551 70.3133 32.6762L70.3238 32.592C70.3291 32.5342 70.3344 32.4763 70.3396 32.4184V32.3974V32.3764C70.3502 32.3027 70.3502 32.2238 70.3554 32.1502V32.1186C70.3659 32.0081 70.3765 31.8924 70.3817 31.7609V31.7504C70.3922 31.6347 70.3975 31.5189 70.4028 31.4032V31.3717V31.3243V31.277C70.4133 31.1823 70.4133 31.0876 70.4185 30.9877C70.4185 30.8562 70.4291 30.7352 70.4291 30.6089V30.5932V30.5353C70.4291 30.4459 70.4291 30.3564 70.4291 30.267V30.1513C70.4291 30.0724 70.4291 29.9988 70.4291 29.9199C70.4291 29.841 70.4291 29.7568 70.4291 29.6779V29.5937C70.3449 23.8917 68.062 18.5474 64.0012 14.5392C59.9351 10.5257 54.5486 8.31641 48.8309 8.31641C47.5106 8.31641 46.206 8.43213 44.9278 8.66884C47.884 10.4573 50.4457 12.8507 52.4498 15.728C55.364 19.9045 56.9052 24.8122 56.9052 29.9199C56.9052 35.0275 55.364 39.9352 52.4498 44.1118C49.6041 48.1884 45.659 51.2919 41.0353 53.0803C38.1843 54.1849 35.1702 54.7478 32.0773 54.7478C27.5641 54.7478 23.2297 53.5485 19.4424 51.3076H19.4476L19.4634 51.3287L19.4792 51.3445C19.4792 51.3445 19.516 51.3813 19.5318 51.3971L19.5897 51.4549C19.637 51.5023 19.6843 51.5496 19.737 51.597L19.7475 51.6075L19.758 51.618C19.8369 51.6969 19.9316 51.7863 20.0263 51.8705L20.042 51.881L20.0526 51.8915C20.1157 51.9494 20.1735 52.0072 20.2367 52.0651L20.2419 52.0756C20.3524 52.1756 20.4576 52.2755 20.5733 52.3702H20.5786L20.5838 52.3807C20.6575 52.4438 20.7311 52.5122 20.8048 52.5753L20.8205 52.5859L20.8679 52.6279L21.0836 52.812L21.1256 52.8489L21.1362 52.8594C21.194 52.9067 21.2519 52.9541 21.3097 53.0014L21.3308 53.0172L21.3518 53.0382C21.4044 53.0803 21.457 53.1277 21.5201 53.175L21.5412 53.1908L21.5622 53.2066C21.6096 53.2434 21.6516 53.2802 21.6937 53.317L21.7095 53.3275L21.72 53.3381C21.8778 53.4696 22.0462 53.5958 22.2145 53.722C22.2513 53.7536 22.2881 53.7799 22.3249 53.8062C22.367 53.8378 22.4091 53.8693 22.4512 53.9009C22.4775 53.9167 22.4985 53.9325 22.5196 53.9535L22.5617 53.9851C22.63 54.0377 22.6932 54.085 22.7615 54.1376L22.8247 54.1849C22.8562 54.2112 22.893 54.2323 22.9246 54.2586L22.9351 54.2691L22.9509 54.2796C22.9982 54.3164 23.0508 54.3533 23.1034 54.3901L23.1561 54.4269C23.277 54.5163 23.4033 54.6005 23.5295 54.6899H23.54L23.5506 54.7057C23.6032 54.7425 23.661 54.7793 23.7189 54.8162L23.761 54.8425L23.8977 54.9319L24.045 55.0318C24.1187 55.0792 24.1976 55.1318 24.2765 55.1791C24.3554 55.2317 24.4343 55.2791 24.5079 55.3264H24.6973L25.0392 55.6525C25.0918 55.6841 25.1444 55.7157 25.197 55.7472C25.3022 55.8103 25.4074 55.8682 25.5126 55.9261H25.5231L25.5336 55.9366C25.6178 55.9839 25.6967 56.0313 25.7809 56.0786C26.2227 56.3311 26.6698 56.5678 27.1222 56.7887C27.2221 56.8361 27.3221 56.8887 27.4168 56.936C27.4326 56.9465 27.4483 56.9518 27.4589 56.9571C27.5535 56.9991 27.643 57.0465 27.7376 57.0886C28.0217 57.2201 28.311 57.3516 28.5898 57.4725H28.5951H28.6003C28.6687 57.5041 28.7423 57.5357 28.8107 57.562C28.8318 57.5725 28.8528 57.5777 28.8791 57.5935C28.9738 57.6303 29.0685 57.6724 29.1631 57.7092C29.3946 57.8039 29.6418 57.8986 29.9048 57.9986H29.9154L29.9259 58.0038C30.0048 58.0354 30.0889 58.0669 30.1678 58.0932H30.1784L30.1889 58.0985C30.5729 58.2405 30.9516 58.3668 31.3146 58.4825H31.3251L31.3356 58.493C31.4092 58.5193 31.4829 58.5404 31.5565 58.5667H31.567H31.5776C31.688 58.6035 31.7985 58.635 31.9089 58.6719L32.0036 58.6982C32.1351 58.735 32.2719 58.7718 32.4034 58.8086C32.477 58.8297 32.5454 58.8454 32.6085 58.8665H32.6243C33.4502 59.0927 34.2918 59.282 35.1176 59.4241H35.1282H35.1387C35.2386 59.4398 35.3491 59.4609 35.4806 59.4819H35.4964C35.6279 59.5082 35.7436 59.524 35.8435 59.5398H35.8593H35.8751C35.9908 59.5608 36.1066 59.5766 36.2275 59.5924H36.2381C37.6215 59.787 39.0312 59.887 40.4304 59.887C41.8296 59.887 43.2446 59.787 44.628 59.5976H44.6596C44.77 59.5766 44.8805 59.5608 44.991 59.545H45.0067H45.0172L70.0661 34.4962C70.0661 34.4962 70.0661 34.4646 70.0714 34.4541L70.1029 34.4489Z" fill="#06171E"/>
</svg>
