<svg width="296" height="388" viewBox="0 0 296 388" fill="none" xmlns="http://www.w3.org/2000/svg">
<path style="mix-blend-mode:screen" d="M269.992 192.475C284.317 125.315 241.485 59.2587 174.325 44.9344C107.165 30.61 41.1085 73.4419 26.7842 140.602C12.4598 207.762 55.2917 273.818 122.452 288.143C189.612 302.467 255.668 259.635 269.992 192.475Z" fill="url(#paint0_radial_23_302)"/>
<path d="M150.822 333.823L120.885 335.244C120.885 335.244 144.144 352.549 150.822 352.549C157.501 352.549 180.76 335.244 180.76 335.244L150.822 333.823Z" fill="url(#paint1_linear_23_302)"/>
<path style="mix-blend-mode:multiply" opacity="0.3" d="M150.822 333.823L120.885 335.244C120.885 335.244 123.226 337.223 129.644 341.431C142.992 339.536 153.107 341.737 161.022 348.369C169.837 343.242 180.76 335.244 180.76 335.244L150.822 333.823Z" fill="url(#paint2_linear_23_302)"/>
<path opacity="0.3" d="M150.822 332.383L120.885 333.804C120.885 333.804 144.144 351.119 150.822 351.119C157.501 351.119 180.76 333.804 180.76 333.804L150.822 332.383Z" fill="url(#paint3_linear_23_302)"/>
<path d="M118.341 292.59V333.201C118.341 336.805 132.887 339.731 150.824 339.731C168.76 339.731 183.306 336.805 183.306 333.201V292.59H118.341Z" fill="url(#paint4_linear_23_302)"/>
<path d="M183.315 292.59C183.315 296.194 168.769 299.12 150.832 299.12C132.896 299.12 118.35 296.194 118.35 292.59C118.35 288.986 132.896 286.06 150.832 286.06C168.769 286.06 183.315 288.986 183.315 292.59Z" fill="url(#paint5_linear_23_302)"/>
<path d="M230.327 175.44C230.327 130.957 193.962 94.9719 149.338 95.5943C106.489 96.1887 71.4521 131.04 70.6347 173.88C70.1702 198.495 80.843 220.63 97.9529 235.585C103.786 240.675 108.551 246.899 111.533 254.051C117.784 269.053 116.215 283.032 117.153 287.11C118.407 292.525 127.593 297.625 150.936 297.625C174.279 297.625 181.719 292.525 182.964 287.11C183.66 284.073 182.973 275.545 185.156 265.198C187.589 253.633 194.064 243.378 202.972 235.604C219.738 220.965 230.327 199.443 230.327 175.44Z" fill="url(#paint6_linear_23_302)"/>
<path d="M116.084 302.492L118.341 300.792C118.341 300.792 131.076 304.768 150.823 304.768C170.571 304.768 183.306 300.792 183.306 300.792L185.563 302.39C185.563 302.39 174.854 306.783 150.443 306.783C126.032 306.783 116.074 302.483 116.074 302.483L116.084 302.492Z" fill="url(#paint7_linear_23_302)"/>
<path d="M116.082 302.492C116.082 302.492 128.204 306.793 150.45 306.793C172.697 306.793 185.571 302.399 185.571 302.399L183.314 305.297C183.314 305.297 169.102 309.273 150.478 309.273C131.854 309.273 118.348 305.641 118.348 305.641L116.091 302.501L116.082 302.492Z" fill="url(#paint8_linear_23_302)"/>
<path d="M116.084 310.963L118.341 309.264C118.341 309.264 131.076 313.239 150.823 313.239C170.571 313.239 183.306 309.264 183.306 309.264L185.563 310.861C185.563 310.861 174.854 315.264 150.443 315.264C126.032 315.264 116.074 310.973 116.074 310.973L116.084 310.963Z" fill="url(#paint9_linear_23_302)"/>
<path d="M116.082 310.963C116.082 310.963 128.204 315.255 150.45 315.255C172.697 315.255 185.571 310.852 185.571 310.852L183.314 313.75C183.314 313.75 169.102 317.726 150.478 317.726C131.854 317.726 118.348 314.094 118.348 314.094L116.091 310.954L116.082 310.963Z" fill="url(#paint10_linear_23_302)"/>
<path d="M116.084 319.435L118.341 317.735C118.341 317.735 131.076 321.71 150.823 321.71C170.571 321.71 183.306 317.735 183.306 317.735L185.563 319.333C185.563 319.333 174.854 323.735 150.443 323.735C126.032 323.735 116.074 319.435 116.074 319.435H116.084Z" fill="url(#paint11_linear_23_302)"/>
<path d="M116.082 319.435C116.082 319.435 128.204 323.735 150.45 323.735C172.697 323.735 185.571 319.333 185.571 319.333L183.314 322.231C183.314 322.231 169.102 326.206 150.478 326.206C131.854 326.206 118.348 322.574 118.348 322.574L116.091 319.435H116.082Z" fill="url(#paint12_linear_23_302)"/>
<path d="M116.084 327.906L118.341 326.206C118.341 326.206 131.076 330.182 150.823 330.182C170.571 330.182 183.306 326.206 183.306 326.206L185.563 327.804C185.563 327.804 174.854 332.207 150.443 332.207C126.032 332.207 116.074 327.906 116.074 327.906H116.084Z" fill="url(#paint13_linear_23_302)"/>
<path d="M116.082 327.906C116.082 327.906 128.204 332.207 150.45 332.207C172.697 332.207 185.571 327.804 185.571 327.804L183.314 330.702C183.314 330.702 169.102 334.678 150.478 334.678C131.854 334.678 118.348 331.046 118.348 331.046L116.091 327.906H116.082Z" fill="url(#paint14_linear_23_302)"/>
<g style="mix-blend-mode:multiply">
<path d="M164.163 237.74C163.392 236.077 159.035 232.873 149.719 232.873C140.402 232.873 136.046 236.077 135.275 237.74C134.504 239.403 141.944 249.788 141.944 249.788C141.944 249.788 144.043 247.224 149.719 247.224C155.394 247.224 157.493 249.788 157.493 249.788C157.493 249.788 164.924 239.403 164.163 237.74Z" fill="url(#paint15_linear_23_302)"/>
<path d="M146.448 196.656H144.293V233.895H146.448V196.656Z" fill="url(#paint16_linear_23_302)"/>
<path d="M155.151 196.656H152.996V233.895H155.151V196.656Z" fill="url(#paint17_linear_23_302)"/>
<path d="M134.681 296.556V266.758C134.681 257.386 141.415 249.797 149.719 249.797C158.023 249.797 164.758 257.395 164.758 266.758V296.909C164.758 296.909 148.762 299.12 134.681 296.566V296.556Z" fill="url(#paint18_linear_23_302)"/>
<g opacity="0.5">
<path d="M146.116 251.785H143.738V297.615H146.116V251.785Z" fill="url(#paint19_linear_23_302)"/>
<path d="M155.711 251.785H153.333V297.615H155.711V251.785Z" fill="url(#paint20_linear_23_302)"/>
</g>
</g>
<circle cx="157.487" cy="274.097" r="19.6308" fill="#F2C94C"/>
<circle cx="134.964" cy="253.64" r="12.3984" fill="#F2C94C"/>
<circle cx="168.438" cy="243.721" r="12.3984" fill="#F2C94C"/>
<circle cx="192.616" cy="205.079" r="19.6308" fill="#F2C94C"/>
<circle cx="162.859" cy="212.518" r="19.6308" fill="#F2C94C"/>
<circle cx="152.114" cy="249.3" r="5.57927" fill="#F2C94C"/>
<circle cx="129.585" cy="216.752" r="28.3096" fill="#F2C94C"/>
<circle cx="186.003" cy="157.139" r="28.3096" fill="#F2C94C"/>
<circle cx="121.113" cy="180.59" r="42.981" fill="#F2C94C"/>
<circle cx="128.764" cy="109.405" r="28.103" fill="#F2C94C"/>
<path style="mix-blend-mode:screen" opacity="0.6" d="M150.063 295.73C129.358 295.73 120.887 290.955 119.847 286.488C119.652 285.633 119.577 283.803 119.503 281.685C119.252 275.211 118.834 264.39 114.088 252.992C111.06 245.71 106.239 239.152 99.7737 233.505C82.5802 218.475 72.9663 196.767 73.4029 173.936C74.1832 132.833 108.264 98.9382 149.376 98.3623C149.747 98.3623 150.11 98.3623 150.472 98.3623C192.977 98.3623 227.559 132.944 227.559 175.45C227.559 197.706 217.936 218.875 201.151 233.532C191.417 242.032 184.942 252.788 182.453 264.64C181.013 271.449 180.79 277.375 180.623 281.695C180.539 283.822 180.474 285.652 180.27 286.497C179.239 290.965 170.758 295.739 150.054 295.739L150.063 295.73Z" fill="url(#paint21_radial_23_302)"/>
<path style="mix-blend-mode:screen" d="M159.049 248.813C200.063 244.074 229.47 206.985 224.732 165.971C219.994 124.958 182.905 95.5504 141.891 100.289C100.877 105.027 71.47 142.116 76.2082 183.13C80.9464 224.144 118.036 253.551 159.049 248.813Z" fill="url(#paint22_radial_23_302)"/>
<path opacity="0.7" d="M201.605 228.127C229.845 199.887 229.845 154.101 201.605 125.861C173.365 97.6212 127.579 97.6212 99.3391 125.861C71.0991 154.101 71.0991 199.887 99.3391 228.127C127.579 256.367 173.365 256.367 201.605 228.127Z" fill="url(#paint23_linear_23_302)"/>
<path opacity="0.7" d="M222.246 153.76C224.429 164.684 224.243 176.249 221.28 187.757C210.747 228.637 169.059 253.234 128.188 242.691C127.854 242.607 127.529 242.496 127.194 242.412C129.739 243.388 132.359 244.242 135.053 244.939C173.722 254.906 213.153 231.637 223.119 192.968C226.575 179.574 226.027 166.087 222.246 153.76Z" fill="url(#paint24_linear_23_302)"/>
<path opacity="0.7" d="M153.23 109.527C179.164 109.527 201.903 123.191 214.657 143.701C202.609 120.525 178.403 104.688 150.471 104.688C110.539 104.688 78.1582 137.059 78.1582 177.001C78.1582 190.999 82.1524 204.059 89.0353 215.131C83.8522 205.164 80.9077 193.851 80.9077 181.84C80.9077 141.908 113.279 109.527 153.221 109.527H153.23Z" fill="url(#paint25_linear_23_302)"/>
<path style="mix-blend-mode:screen" opacity="0.5" d="M150.472 249.379C130.232 249.379 112.193 238.883 112.193 238.883C127 251.023 116.94 283.051 128.384 289.757C139.827 296.464 150.472 293.77 150.472 293.77C150.472 293.77 161.117 296.473 172.561 289.757C184.005 283.051 173.945 251.014 188.751 238.883C188.751 238.883 170.722 249.379 150.472 249.379Z" fill="url(#paint26_linear_23_302)"/>
<path d="M150.649 249.286C131.933 249.286 115.269 240.35 115.269 240.35C128.951 252.37 119.653 282.623 130.233 289.265C140.813 295.906 150.649 293.231 150.649 293.231C150.649 293.231 160.486 295.906 171.066 289.265C181.646 282.623 172.348 252.361 186.03 240.35C186.03 240.35 169.357 249.286 150.649 249.286Z" fill="url(#paint27_linear_23_302)"/>
<path opacity="0.3" d="M169.625 123.07C178.839 136.632 170.08 158.646 150.063 172.236C130.045 185.825 106.35 185.853 97.1445 172.292C87.9301 158.73 96.6894 136.716 116.707 123.117C136.724 109.527 160.42 109.5 169.625 123.061V123.07Z" fill="white"/>
<path opacity="0.7" d="M94.6097 151.317C79.3948 177.14 91.3773 215.419 103.833 225.562C87.7082 185.751 111.46 151.317 111.46 151.317H94.6097Z" fill="url(#paint28_linear_23_302)"/>
<path d="M97.1641 147.685C97.1641 147.685 103.731 136.641 108.691 132.118C108.691 132.118 117.451 130.966 125.755 130.966C118.38 139.27 113.949 147.685 113.949 147.685H97.1641Z" fill="url(#paint29_linear_23_302)"/>
<g opacity="0.5">
<path d="M228.049 373.152C228.049 381.019 192.844 387.391 149.419 387.391C105.994 387.391 70.79 381.019 70.79 373.152C70.79 365.284 105.994 358.912 149.419 358.912C192.844 358.912 228.049 365.293 228.049 373.152Z" fill="url(#paint30_radial_23_302)"/>
</g>
<circle cx="79.87" cy="52.1647" r="14.9042" fill="#FCF232"/>
<circle cx="190.254" cy="14.9042" r="14.9042" fill="#F2C94C"/>
<g filter="url(#filter0_f_23_302)">
<circle cx="231.474" cy="55.1921" r="10.0138" fill="#F2C94C"/>
</g>
<g filter="url(#filter1_f_23_302)">
<circle cx="175.118" cy="64.0416" r="5.82196" fill="#FCF232"/>
</g>
<defs>
<filter id="filter0_f_23_302" x="219.597" y="43.3153" width="23.7534" height="23.7536" filterUnits="userSpaceOnUse" color-interpolation-filters="sRGB">
<feFlood flood-opacity="0" result="BackgroundImageFix"/>
<feBlend mode="normal" in="SourceGraphic" in2="BackgroundImageFix" result="shape"/>
<feGaussianBlur stdDeviation="0.931514" result="effect1_foregroundBlur_23_302"/>
</filter>
<filter id="filter1_f_23_302" x="167.433" y="56.3566" width="15.3696" height="15.37" filterUnits="userSpaceOnUse" color-interpolation-filters="sRGB">
<feFlood flood-opacity="0" result="BackgroundImageFix"/>
<feBlend mode="normal" in="SourceGraphic" in2="BackgroundImageFix" result="shape"/>
<feGaussianBlur stdDeviation="0.931514" result="effect1_foregroundBlur_23_302"/>
</filter>
<radialGradient id="paint0_radial_23_302" cx="0" cy="0" r="1" gradientUnits="userSpaceOnUse" gradientTransform="translate(148.381 166.542) scale(124.339 124.339)">
<stop stop-color="#FEAC00"/>
<stop offset="0.44" stop-color="#FEAC00" stop-opacity="0.55"/>
<stop offset="1" stop-color="#FEAC00" stop-opacity="0"/>
</radialGradient>
<linearGradient id="paint1_linear_23_302" x1="134.196" y1="325.491" x2="181.466" y2="354.667" gradientUnits="userSpaceOnUse">
<stop stop-color="#333333"/>
<stop offset="0.21" stop-color="#353535"/>
<stop offset="0.35" stop-color="#3E3E3E"/>
<stop offset="0.48" stop-color="#4E4E4E"/>
<stop offset="0.59" stop-color="#646464"/>
<stop offset="0.7" stop-color="#808080"/>
<stop offset="0.8" stop-color="#A3A3A3"/>
<stop offset="0.9" stop-color="#CCCCCC"/>
<stop offset="0.99" stop-color="#FAFAFA"/>
<stop offset="1" stop-color="white"/>
</linearGradient>
<linearGradient id="paint2_linear_23_302" x1="134.251" y1="325.398" x2="181.522" y2="354.583" gradientUnits="userSpaceOnUse">
<stop stop-color="#333333"/>
<stop offset="0.21" stop-color="#353535"/>
<stop offset="0.35" stop-color="#3E3E3E"/>
<stop offset="0.48" stop-color="#4E4E4E"/>
<stop offset="0.59" stop-color="#646464"/>
<stop offset="0.7" stop-color="#808080"/>
<stop offset="0.8" stop-color="#A3A3A3"/>
<stop offset="0.9" stop-color="#CCCCCC"/>
<stop offset="0.99" stop-color="#FAFAFA"/>
<stop offset="1" stop-color="white"/>
</linearGradient>
<linearGradient id="paint3_linear_23_302" x1="143.902" y1="357.063" x2="148.324" y2="342.211" gradientUnits="userSpaceOnUse">
<stop offset="0.3" stop-color="white"/>
<stop offset="0.36" stop-color="white" stop-opacity="0.88"/>
<stop offset="0.54" stop-color="white" stop-opacity="0.57"/>
<stop offset="0.7" stop-color="white" stop-opacity="0.33"/>
<stop offset="0.84" stop-color="white" stop-opacity="0.15"/>
<stop offset="0.94" stop-color="white" stop-opacity="0.04"/>
<stop offset="1" stop-color="white" stop-opacity="0"/>
</linearGradient>
<linearGradient id="paint4_linear_23_302" x1="115.694" y1="316.165" x2="189.14" y2="316.165" gradientUnits="userSpaceOnUse">
<stop stop-color="#333333"/>
<stop offset="0.03" stop-color="#494949"/>
<stop offset="0.16" stop-color="#969696"/>
<stop offset="0.26" stop-color="#CECECE"/>
<stop offset="0.33" stop-color="#F1F1F1"/>
<stop offset="0.37" stop-color="white"/>
<stop offset="0.61" stop-color="#666666"/>
<stop offset="0.63" stop-color="#787878"/>
<stop offset="0.67" stop-color="#A8A8A8"/>
<stop offset="0.71" stop-color="#CECECE"/>
<stop offset="0.74" stop-color="#E8E8E8"/>
<stop offset="0.77" stop-color="#F9F9F9"/>
<stop offset="0.8" stop-color="white"/>
<stop offset="0.85" stop-color="#D7D7D7"/>
<stop offset="0.9" stop-color="#B5B5B5"/>
<stop offset="0.94" stop-color="#A0A0A0"/>
<stop offset="0.97" stop-color="#999999"/>
</linearGradient>
<linearGradient id="paint5_linear_23_302" x1="131.28" y1="306.208" x2="173.125" y2="277.069" gradientUnits="userSpaceOnUse">
<stop stop-color="#333333"/>
<stop offset="0.09" stop-color="#494949"/>
<stop offset="0.42" stop-color="#969696"/>
<stop offset="0.69" stop-color="#CECECE"/>
<stop offset="0.89" stop-color="#F1F1F1"/>
<stop offset="1" stop-color="white"/>
</linearGradient>
<linearGradient id="paint6_linear_23_302" x1="88.5248" y1="253.466" x2="236.151" y2="107.187" gradientUnits="userSpaceOnUse">
<stop stop-color="#FEAC00"/>
<stop offset="1" stop-color="#FEAC00" stop-opacity="0"/>
</linearGradient>
<linearGradient id="paint7_linear_23_302" x1="107.844" y1="306.867" x2="198.475" y2="297.866" gradientUnits="userSpaceOnUse">
<stop stop-color="#333333"/>
<stop offset="0.09" stop-color="#494949"/>
<stop offset="0.42" stop-color="#969696"/>
<stop offset="0.69" stop-color="#CECECE"/>
<stop offset="0.89" stop-color="#F1F1F1"/>
<stop offset="1" stop-color="white"/>
</linearGradient>
<linearGradient id="paint8_linear_23_302" x1="118.887" y1="307.638" x2="209.518" y2="298.646" gradientUnits="userSpaceOnUse">
<stop stop-color="#333333"/>
<stop offset="0.09" stop-color="#494949"/>
<stop offset="0.42" stop-color="#969696"/>
<stop offset="0.69" stop-color="#CECECE"/>
<stop offset="0.89" stop-color="#F1F1F1"/>
<stop offset="1" stop-color="white"/>
</linearGradient>
<linearGradient id="paint9_linear_23_302" x1="107.844" y1="315.338" x2="198.475" y2="306.347" gradientUnits="userSpaceOnUse">
<stop stop-color="#333333"/>
<stop offset="0.09" stop-color="#494949"/>
<stop offset="0.42" stop-color="#969696"/>
<stop offset="0.69" stop-color="#CECECE"/>
<stop offset="0.89" stop-color="#F1F1F1"/>
<stop offset="1" stop-color="white"/>
</linearGradient>
<linearGradient id="paint10_linear_23_302" x1="118.887" y1="316.109" x2="209.518" y2="307.118" gradientUnits="userSpaceOnUse">
<stop stop-color="#333333"/>
<stop offset="0.09" stop-color="#494949"/>
<stop offset="0.42" stop-color="#969696"/>
<stop offset="0.69" stop-color="#CECECE"/>
<stop offset="0.89" stop-color="#F1F1F1"/>
<stop offset="1" stop-color="white"/>
</linearGradient>
<linearGradient id="paint11_linear_23_302" x1="107.844" y1="323.81" x2="198.475" y2="314.818" gradientUnits="userSpaceOnUse">
<stop stop-color="#333333"/>
<stop offset="0.09" stop-color="#494949"/>
<stop offset="0.42" stop-color="#969696"/>
<stop offset="0.69" stop-color="#CECECE"/>
<stop offset="0.89" stop-color="#F1F1F1"/>
<stop offset="1" stop-color="white"/>
</linearGradient>
<linearGradient id="paint12_linear_23_302" x1="118.887" y1="324.59" x2="209.518" y2="315.589" gradientUnits="userSpaceOnUse">
<stop stop-color="#333333"/>
<stop offset="0.09" stop-color="#494949"/>
<stop offset="0.42" stop-color="#969696"/>
<stop offset="0.69" stop-color="#CECECE"/>
<stop offset="0.89" stop-color="#F1F1F1"/>
<stop offset="1" stop-color="white"/>
</linearGradient>
<linearGradient id="paint13_linear_23_302" x1="107.844" y1="332.281" x2="198.475" y2="323.29" gradientUnits="userSpaceOnUse">
<stop stop-color="#333333"/>
<stop offset="0.09" stop-color="#494949"/>
<stop offset="0.42" stop-color="#969696"/>
<stop offset="0.69" stop-color="#CECECE"/>
<stop offset="0.89" stop-color="#F1F1F1"/>
<stop offset="1" stop-color="white"/>
</linearGradient>
<linearGradient id="paint14_linear_23_302" x1="118.887" y1="333.061" x2="209.518" y2="324.07" gradientUnits="userSpaceOnUse">
<stop stop-color="#333333"/>
<stop offset="0.09" stop-color="#494949"/>
<stop offset="0.42" stop-color="#969696"/>
<stop offset="0.69" stop-color="#CECECE"/>
<stop offset="0.89" stop-color="#F1F1F1"/>
<stop offset="1" stop-color="white"/>
</linearGradient>
<linearGradient id="paint15_linear_23_302" x1="150.155" y1="232.25" x2="148.66" y2="252.305" gradientUnits="userSpaceOnUse">
<stop stop-color="#A67C52"/>
<stop offset="0.12" stop-color="#A67C52" stop-opacity="0.67"/>
<stop offset="0.24" stop-color="#A67C52" stop-opacity="0.38"/>
<stop offset="0.35" stop-color="#A67C52" stop-opacity="0.17"/>
<stop offset="0.44" stop-color="#A67C52" stop-opacity="0.05"/>
<stop offset="0.5" stop-color="#A67C52" stop-opacity="0"/>
</linearGradient>
<linearGradient id="paint16_linear_23_302" x1="144.293" y1="215.271" x2="146.448" y2="215.271" gradientUnits="userSpaceOnUse">
<stop stop-color="#A67C52"/>
<stop offset="0.17" stop-color="#A67C52" stop-opacity="0.67"/>
<stop offset="0.34" stop-color="#A67C52" stop-opacity="0.38"/>
<stop offset="0.49" stop-color="#A67C52" stop-opacity="0.17"/>
<stop offset="0.61" stop-color="#A67C52" stop-opacity="0.05"/>
<stop offset="0.7" stop-color="#A67C52" stop-opacity="0"/>
</linearGradient>
<linearGradient id="paint17_linear_23_302" x1="152.996" y1="-16.6326" x2="155.142" y2="-16.6326" gradientUnits="userSpaceOnUse">
<stop stop-color="#A67C52"/>
<stop offset="0.17" stop-color="#A67C52" stop-opacity="0.67"/>
<stop offset="0.34" stop-color="#A67C52" stop-opacity="0.38"/>
<stop offset="0.49" stop-color="#A67C52" stop-opacity="0.17"/>
<stop offset="0.61" stop-color="#A67C52" stop-opacity="0.05"/>
<stop offset="0.7" stop-color="#A67C52" stop-opacity="0"/>
</linearGradient>
<linearGradient id="paint18_linear_23_302" x1="134.114" y1="273.864" x2="169.244" y2="273.697" gradientUnits="userSpaceOnUse">
<stop stop-color="#A67C52" stop-opacity="0.24"/>
<stop offset="0.02" stop-color="#A67C52" stop-opacity="0.29"/>
<stop offset="0.04" stop-color="#A67C52" stop-opacity="0.44"/>
<stop offset="0.08" stop-color="#A67C52" stop-opacity="0.69"/>
<stop offset="0.12" stop-color="#A67C52"/>
<stop offset="0.21" stop-color="#A67C52" stop-opacity="0.67"/>
<stop offset="0.3" stop-color="#A67C52" stop-opacity="0.38"/>
<stop offset="0.39" stop-color="#A67C52" stop-opacity="0.17"/>
<stop offset="0.45" stop-color="#A67C52" stop-opacity="0.05"/>
<stop offset="0.5" stop-color="#A67C52" stop-opacity="0"/>
<stop offset="0.59" stop-color="#A67C52" stop-opacity="0.02"/>
<stop offset="0.67" stop-color="#A67C52" stop-opacity="0.08"/>
<stop offset="0.74" stop-color="#A67C52" stop-opacity="0.18"/>
<stop offset="0.81" stop-color="#A67C52" stop-opacity="0.33"/>
<stop offset="0.88" stop-color="#A67C52" stop-opacity="0.52"/>
<stop offset="0.94" stop-color="#A67C52" stop-opacity="0.74"/>
<stop offset="1" stop-color="#A67C52"/>
</linearGradient>
<linearGradient id="paint19_linear_23_302" x1="144.927" y1="297.615" x2="144.927" y2="251.785" gradientUnits="userSpaceOnUse">
<stop offset="0.04" stop-color="#A67C52"/>
<stop offset="0.19" stop-color="#A67C52" stop-opacity="0.67"/>
<stop offset="0.34" stop-color="#A67C52" stop-opacity="0.38"/>
<stop offset="0.47" stop-color="#A67C52" stop-opacity="0.17"/>
<stop offset="0.57" stop-color="#A67C52" stop-opacity="0.05"/>
<stop offset="0.64" stop-color="#A67C52" stop-opacity="0"/>
</linearGradient>
<linearGradient id="paint20_linear_23_302" x1="154.522" y1="-16.6327" x2="154.522" y2="-16.6327" gradientUnits="userSpaceOnUse">
<stop offset="0.04" stop-color="#A67C52"/>
<stop offset="0.19" stop-color="#A67C52" stop-opacity="0.67"/>
<stop offset="0.34" stop-color="#A67C52" stop-opacity="0.38"/>
<stop offset="0.47" stop-color="#A67C52" stop-opacity="0.17"/>
<stop offset="0.57" stop-color="#A67C52" stop-opacity="0.05"/>
<stop offset="0.64" stop-color="#A67C52" stop-opacity="0"/>
</linearGradient>
<radialGradient id="paint21_radial_23_302" cx="0" cy="0" r="1" gradientUnits="userSpaceOnUse" gradientTransform="translate(150.472 177.67) scale(99.6963 99.6963)">
<stop offset="0.07" stop-color="#FEAC00" stop-opacity="0"/>
<stop offset="0.15" stop-color="#FEAC00" stop-opacity="0.05"/>
<stop offset="0.3" stop-color="#FEAC00" stop-opacity="0.18"/>
<stop offset="0.5" stop-color="#FEAC00" stop-opacity="0.39"/>
<stop offset="0.75" stop-color="#FEAC00" stop-opacity="0.68"/>
<stop offset="1" stop-color="#FEAC00"/>
</radialGradient>
<radialGradient id="paint22_radial_23_302" cx="0" cy="0" r="1" gradientUnits="userSpaceOnUse" gradientTransform="translate(114.957 211.453) scale(146.14)">
<stop offset="0.07" stop-color="#FEAC00" stop-opacity="0"/>
<stop offset="0.15" stop-color="#FEAC00" stop-opacity="0.05"/>
<stop offset="0.3" stop-color="#FEAC00" stop-opacity="0.18"/>
<stop offset="0.5" stop-color="#FEAC00" stop-opacity="0.39"/>
<stop offset="0.75" stop-color="#FEAC00" stop-opacity="0.68"/>
<stop offset="1" stop-color="#FEAC00"/>
</radialGradient>
<linearGradient id="paint23_linear_23_302" x1="63.9548" y1="120.901" x2="189.855" y2="202.531" gradientUnits="userSpaceOnUse">
<stop offset="0.3" stop-color="white"/>
<stop offset="0.36" stop-color="white" stop-opacity="0.88"/>
<stop offset="0.54" stop-color="white" stop-opacity="0.57"/>
<stop offset="0.7" stop-color="white" stop-opacity="0.33"/>
<stop offset="0.84" stop-color="white" stop-opacity="0.15"/>
<stop offset="0.94" stop-color="white" stop-opacity="0.04"/>
<stop offset="1" stop-color="white" stop-opacity="0"/>
</linearGradient>
<linearGradient id="paint24_linear_23_302" x1="218.939" y1="186.355" x2="130.854" y2="249.992" gradientUnits="userSpaceOnUse">
<stop offset="0.3" stop-color="white"/>
<stop offset="0.36" stop-color="white" stop-opacity="0.88"/>
<stop offset="0.54" stop-color="white" stop-opacity="0.57"/>
<stop offset="0.7" stop-color="white" stop-opacity="0.33"/>
<stop offset="0.84" stop-color="white" stop-opacity="0.15"/>
<stop offset="0.94" stop-color="white" stop-opacity="0.04"/>
<stop offset="1" stop-color="white" stop-opacity="0"/>
</linearGradient>
<linearGradient id="paint25_linear_23_302" x1="65.832" y1="118.008" x2="191.723" y2="199.628" gradientUnits="userSpaceOnUse">
<stop offset="0.3" stop-color="white"/>
<stop offset="0.36" stop-color="white" stop-opacity="0.88"/>
<stop offset="0.54" stop-color="white" stop-opacity="0.57"/>
<stop offset="0.7" stop-color="white" stop-opacity="0.33"/>
<stop offset="0.84" stop-color="white" stop-opacity="0.15"/>
<stop offset="0.94" stop-color="white" stop-opacity="0.04"/>
<stop offset="1" stop-color="white" stop-opacity="0"/>
</linearGradient>
<linearGradient id="paint26_linear_23_302" x1="106.026" y1="266.591" x2="200.093" y2="266.591" gradientUnits="userSpaceOnUse">
<stop stop-color="#FEAC00"/>
<stop offset="0.04" stop-color="#FEAC00" stop-opacity="0.87"/>
<stop offset="0.1" stop-color="#FEAC00" stop-opacity="0.64"/>
<stop offset="0.17" stop-color="#FEAC00" stop-opacity="0.45"/>
<stop offset="0.24" stop-color="#FEAC00" stop-opacity="0.29"/>
<stop offset="0.31" stop-color="#FEAC00" stop-opacity="0.16"/>
<stop offset="0.37" stop-color="#FEAC00" stop-opacity="0.07"/>
<stop offset="0.43" stop-color="#FEAC00" stop-opacity="0.02"/>
<stop offset="0.48" stop-color="#FEAC00" stop-opacity="0"/>
<stop offset="0.52" stop-color="#FEAC00" stop-opacity="0.05"/>
<stop offset="0.58" stop-color="#FEAC00" stop-opacity="0.18"/>
<stop offset="0.67" stop-color="#FEAC00" stop-opacity="0.39"/>
<stop offset="0.77" stop-color="#FEAC00" stop-opacity="0.68"/>
<stop offset="0.88" stop-color="#FEAC00"/>
</linearGradient>
<linearGradient id="paint27_linear_23_302" x1="109.556" y1="267.055" x2="196.517" y2="267.055" gradientUnits="userSpaceOnUse">
<stop offset="0.03" stop-color="white"/>
<stop offset="0.04" stop-color="white" stop-opacity="0.98"/>
<stop offset="0.09" stop-color="white" stop-opacity="0.75"/>
<stop offset="0.15" stop-color="white" stop-opacity="0.55"/>
<stop offset="0.2" stop-color="white" stop-opacity="0.38"/>
<stop offset="0.26" stop-color="white" stop-opacity="0.24"/>
<stop offset="0.31" stop-color="white" stop-opacity="0.14"/>
<stop offset="0.37" stop-color="white" stop-opacity="0.06"/>
<stop offset="0.42" stop-color="white" stop-opacity="0.01"/>
<stop offset="0.48" stop-color="white" stop-opacity="0"/>
<stop offset="0.52" stop-color="white" stop-opacity="0.05"/>
<stop offset="0.59" stop-color="white" stop-opacity="0.18"/>
<stop offset="0.69" stop-color="white" stop-opacity="0.39"/>
<stop offset="0.81" stop-color="white" stop-opacity="0.67"/>
<stop offset="0.93" stop-color="white"/>
</linearGradient>
<linearGradient id="paint28_linear_23_302" x1="113.122" y1="140.979" x2="91.4516" y2="211.536" gradientUnits="userSpaceOnUse">
<stop offset="0.3" stop-color="white"/>
<stop offset="0.36" stop-color="white" stop-opacity="0.88"/>
<stop offset="0.54" stop-color="white" stop-opacity="0.57"/>
<stop offset="0.7" stop-color="white" stop-opacity="0.33"/>
<stop offset="0.84" stop-color="white" stop-opacity="0.15"/>
<stop offset="0.94" stop-color="white" stop-opacity="0.04"/>
<stop offset="1" stop-color="white" stop-opacity="0"/>
</linearGradient>
<linearGradient id="paint29_linear_23_302" x1="113.429" y1="119.058" x2="109.509" y2="159.408" gradientUnits="userSpaceOnUse">
<stop offset="0.3" stop-color="white"/>
<stop offset="0.36" stop-color="white" stop-opacity="0.88"/>
<stop offset="0.54" stop-color="white" stop-opacity="0.57"/>
<stop offset="0.7" stop-color="white" stop-opacity="0.33"/>
<stop offset="0.84" stop-color="white" stop-opacity="0.15"/>
<stop offset="0.94" stop-color="white" stop-opacity="0.04"/>
<stop offset="1" stop-color="white" stop-opacity="0"/>
</linearGradient>
<radialGradient id="paint30_radial_23_302" cx="0" cy="0" r="1" gradientUnits="userSpaceOnUse" gradientTransform="translate(149.703 373.157) scale(78.8468 14.2494)">
<stop offset="0.05" stop-color="#666666" stop-opacity="0.5"/>
<stop offset="0.16" stop-color="#939393" stop-opacity="0.5"/>
<stop offset="0.31" stop-color="#CECECE" stop-opacity="0.5"/>
<stop offset="0.45" stop-color="#F2F2F2" stop-opacity="0.5"/>
<stop offset="0.55" stop-color="white" stop-opacity="0.5"/>
<stop offset="0.65" stop-color="white" stop-opacity="0.39"/>
<stop offset="0.89" stop-color="white" stop-opacity="0.11"/>
<stop offset="1" stop-color="white" stop-opacity="0"/>
</radialGradient>
</defs>
</svg>
