<svg width="80" height="26" viewBox="0 0 80 26" fill="none" xmlns="http://www.w3.org/2000/svg">
<path d="M0 0V26H5.79476V0H0Z" fill="#F2C94C"/>
<path d="M23.1392 26L31.8867 0H25.9074L19.965 18.2801H19.8912L14.0226 0H8.08025L16.6063 26H23.1392Z" fill="#F2C94C"/>
<path d="M39.0835 15.9496L42.516 6.40896H42.5898L45.9117 15.9496H39.0835ZM39.6371 0L29.6716 26H35.5033L37.5702 20.2101H47.425L49.4181 26H55.4343L45.5795 0H39.6371Z" fill="#F2C94C"/>
<path d="M64.1659 12.381L54.9755 26H61.4715L67.3401 17.0056L73.098 26H80L70.8096 12.4174L79.2618 0H72.9134L67.5616 8.30252L62.3943 0H55.6768L64.1659 12.381Z" fill="#F2C94C"/>
</svg>
