<svg width="57" height="54" viewBox="0 0 57 54" fill="none" xmlns="http://www.w3.org/2000/svg">
<path d="M32.6403 50.2274V48.3411C32.6403 47.9897 32.9177 47.7123 33.269 47.7123H47.7122V20.1021H38.5951C37.0601 22.0438 34.9704 23.5418 32.6403 24.374V26.3712C34.0273 26.3712 35.1553 27.4993 35.1553 28.8863C35.1553 30.2733 34.0273 31.4014 32.6403 31.4014V33.2877C32.6403 35.7103 30.6615 37.689 28.2389 37.689C25.8163 37.689 23.8376 35.7103 23.8376 33.2877V31.4014C22.4506 31.4014 21.3225 30.2733 21.3225 28.8863C21.3225 27.4993 22.4506 26.3712 23.8376 26.3712V24.374C21.5074 23.5418 19.4177 22.0438 17.8828 20.1021H8.76562V47.7123H13.7958V34.5267C13.7958 34.1753 14.0732 33.8979 14.4245 33.8979C14.7759 33.8979 15.0533 34.1753 15.0533 34.5267V47.7123H17.5684V43.3109C17.5684 42.9596 17.8458 42.6822 18.1971 42.6822C18.5485 42.6822 18.8259 42.9596 18.8259 43.3109V47.7123H23.2273C23.5786 47.7123 23.856 47.9897 23.856 48.3411V50.2274H32.6403ZM43.3108 35.7842C43.9951 35.7842 44.5684 36.339 44.5684 37.0418C44.5684 37.7445 44.0136 38.2993 43.3108 38.2993C42.6081 38.2993 42.0533 37.7445 42.0533 37.0418C42.0533 36.339 42.6081 35.7842 43.3108 35.7842ZM43.3108 39.5568C43.9951 39.5568 44.5684 40.1116 44.5684 40.8144C44.5684 41.5171 44.0136 42.0719 43.3108 42.0719C42.6081 42.0719 42.0533 41.5171 42.0533 40.8144C42.0533 40.1116 42.6081 39.5568 43.3108 39.5568ZM43.3108 43.3294C43.9951 43.3294 44.5684 43.8842 44.5684 44.587C44.5684 45.2897 44.0136 45.8445 43.3108 45.8445C42.6081 45.8445 42.0533 45.2897 42.0533 44.587C42.0533 43.8842 42.6081 43.3294 43.3108 43.3294ZM34.5266 36.4315H39.5567C39.9081 36.4315 40.1855 36.7089 40.1855 37.0603C40.1855 37.4116 39.9081 37.689 39.5567 37.689H34.5266C34.1752 37.689 33.8978 37.4116 33.8978 37.0603C33.8978 36.7089 34.1752 36.4315 34.5266 36.4315ZM34.5266 40.2041H39.5567C39.9081 40.2041 40.1855 40.4815 40.1855 40.8329C40.1855 41.1842 39.9081 41.4616 39.5567 41.4616H34.5266C34.1752 41.4616 33.8978 41.1842 33.8978 40.8329C33.8978 40.4815 34.1752 40.2041 34.5266 40.2041ZM34.5266 43.9767H39.5567C39.9081 43.9767 40.1855 44.2541 40.1855 44.6055C40.1855 44.9568 39.9081 45.2342 39.5567 45.2342H34.5266C34.1752 45.2342 33.8978 44.9568 33.8978 44.6055C33.8978 44.2541 34.1752 43.9767 34.5266 43.9767ZM14.443 32.0486C13.7588 32.0486 13.1855 31.4938 13.1855 30.7911C13.1855 30.0883 13.7403 29.5336 14.443 29.5336C15.1458 29.5336 15.7006 30.0883 15.7006 30.7911C15.7006 31.4938 15.1458 32.0486 14.443 32.0486Z" fill="#F2C94C"/>
<path d="M23.8564 13.2041C23.8564 14.2397 24.7071 15.0904 25.7428 15.0904C26.7784 15.0904 27.6291 14.2397 27.6291 13.2041V11.3177H25.7428C24.7071 11.3177 23.8564 12.1684 23.8564 13.2041Z" fill="#F2C94C"/>
<path d="M28.2582 36.4129C29.9965 36.4129 31.402 35.0075 31.402 33.2691V31.3828H25.1328V33.2691C25.1328 35.0075 26.5383 36.4129 28.2766 36.4129H28.2582Z" fill="#F2C94C"/>
<path d="M23.8562 27.6289C23.1719 27.6289 22.5986 28.1837 22.5986 28.8864C22.5986 29.5892 23.1534 30.144 23.8562 30.144H32.6404C33.3246 30.144 33.8979 29.5892 33.8979 28.8864C33.8979 28.1837 33.3431 27.6289 32.6404 27.6289H23.8562Z" fill="#F2C94C"/>
<path d="M46.8927 0.331441L45.1143 2.10986L46.8927 3.88828L48.6711 2.10986L46.8927 0.331441Z" fill="#F2C94C"/>
<path d="M10.3966 6.41117L8.61816 8.18958L10.3966 9.968L12.175 8.1896L10.3966 6.41117Z" fill="#F2C94C"/>
<path d="M3.14412 8.80263C4.17974 8.80263 5.03043 7.95195 5.03043 6.91633C5.03043 5.88071 4.17974 5.03003 3.14412 5.03003C2.1085 5.03003 1.25781 5.88071 1.25781 6.91633C1.25781 7.95195 2.1085 8.80263 3.14412 8.80263Z" fill="#F2C94C"/>
<path d="M45.8262 10.5779C45.8262 11.6136 46.6768 12.4642 47.7125 12.4642C48.7481 12.4642 49.5988 11.6136 49.5988 10.5779C49.5988 9.54233 48.7481 8.69165 47.7125 8.69165C46.6768 8.69165 45.8262 9.54233 45.8262 10.5779Z" fill="#F2C94C"/>
<path d="M48.3407 18.8446C48.6921 18.8446 48.9695 19.122 48.9695 19.4733V47.7124H52.742V17.9754C52.742 16.385 51.4475 15.0905 49.8571 15.0905H41.0729C40.7585 16.422 40.2222 17.6795 39.501 18.8631H48.3592L48.3407 18.8446Z" fill="#F2C94C"/>
<path d="M16.5705 14.3507C16.9218 16.052 17.6246 17.6425 18.6232 19.011C18.6787 19.0664 18.7157 19.1219 18.7527 19.1959C20.2136 21.1007 22.2479 22.5616 24.6705 23.3383C24.9294 23.4123 25.1143 23.6712 25.1143 23.9301V26.3897H27.6294V15.7192C27.1116 16.1075 26.4458 16.3479 25.7431 16.3479C24.0047 16.3479 22.5993 14.9425 22.5993 13.2041C22.5993 11.4657 24.0047 10.0603 25.7431 10.0603H27.6294V9.4315C27.6294 9.08013 27.9068 8.80274 28.2582 8.80274C28.6095 8.80274 28.8869 9.08013 28.8869 9.4315V10.0603H30.7732C32.5116 10.0603 33.917 11.4657 33.917 13.2041C33.917 14.9425 32.5116 16.3479 30.7732 16.3479C30.0705 16.3479 29.4232 16.1075 28.8869 15.7192V26.3897H31.402V23.9301C31.402 23.6527 31.5869 23.4123 31.8458 23.3383C34.2684 22.5801 36.3027 21.1192 37.7636 19.1959C37.8006 19.1219 37.8376 19.0664 37.8931 19.011C38.8917 17.6425 39.6129 16.052 39.9458 14.3507C39.9458 14.3507 39.9458 14.3137 39.9458 14.2952C40.0937 13.537 40.1862 12.7418 40.1862 11.9281C40.1862 5.34452 34.8417 0 28.2582 0C21.6746 0 16.3301 5.34452 16.3301 11.9281C16.3301 12.7418 16.404 13.5185 16.5705 14.2952C16.5705 14.2952 16.5705 14.3322 16.5705 14.3507Z" fill="#F2C94C"/>
<path d="M53.9815 48.9698H33.8979V50.8562C33.8979 51.2075 33.6205 51.4849 33.2691 51.4849H23.2274C22.876 51.4849 22.5986 51.2075 22.5986 50.8562V48.9698H2.51507C1.12808 48.9698 0 50.0979 0 51.4849C0 52.8719 1.12808 54 2.51507 54H53.9815C55.3685 54 56.4965 52.8719 56.4965 51.4849C56.4965 50.0979 55.3685 48.9698 53.9815 48.9698Z" fill="#F2C94C"/>
<path d="M3.77246 17.9754V47.7309H7.54508V19.4918C7.54508 19.1405 7.82247 18.8631 8.17384 18.8631H17.032C16.3108 17.698 15.7745 16.422 15.4601 15.0905H6.6759C5.08549 15.0905 3.79094 16.385 3.79094 17.9754H3.77246Z" fill="#F2C94C"/>
<path d="M32.6398 13.2041C32.6398 12.1684 31.7891 11.3177 30.7535 11.3177H28.8672V13.2041C28.8672 14.2397 29.7179 15.0904 30.7535 15.0904C31.7891 15.0904 32.6398 14.2397 32.6398 13.2041Z" fill="#F2C94C"/>
</svg>
