<svg width="55" height="54" viewBox="0 0 55 54" fill="none" xmlns="http://www.w3.org/2000/svg">
<path d="M41.6003 22.9586H35.6416V26.5444H41.6003V22.9586Z" fill="#F2C94C"/>
<path d="M49.1058 38.4793H31.8097C31.4757 38.4793 31.212 38.2156 31.212 37.8817C31.212 37.5477 31.4757 37.284 31.8097 37.284H49.1058V8.65065H42.5494C42.2154 8.65065 41.9518 8.387 41.9518 8.05303V1.4967H13.3184V42.0651H49.1233V38.4793H49.1058ZM42.1978 21.7809C42.5318 21.7809 42.7955 22.0446 42.7955 22.3785V27.1596C42.7955 27.4935 42.5318 27.7572 42.1978 27.7572H35.6415V30.7453C35.6415 30.9738 35.5185 31.1848 35.3076 31.2726C35.2197 31.3078 35.1318 31.3429 35.0439 31.3429C34.9209 31.3429 34.7802 31.3078 34.6748 31.2199L26.6771 25.1206C26.5189 24.9976 26.4486 24.8217 26.4486 24.646C26.4486 24.4526 26.5365 24.2769 26.6947 24.1714L34.6924 18.3533C34.8681 18.2303 35.1142 18.1951 35.3076 18.3006C35.5009 18.4061 35.6415 18.5994 35.6415 18.8279V21.8161H42.1978V21.7809ZM18.6795 3.88719H23.4605C23.7945 3.88719 24.0581 4.15087 24.0581 4.48484C24.0581 4.81881 23.7945 5.08246 23.4605 5.08246H18.6795C18.3455 5.08246 18.0818 4.81881 18.0818 4.48484C18.0818 4.15087 18.3455 3.88719 18.6795 3.88719ZM18.6795 7.47297H36.5731C36.9071 7.47297 37.1708 7.73663 37.1708 8.0706C37.1708 8.40456 36.9071 8.66822 36.5731 8.66822H18.6795C18.3455 8.66822 18.0818 8.40456 18.0818 8.0706C18.0818 7.73663 18.3455 7.47297 18.6795 7.47297ZM20.4723 29.2337V35.5088C20.4723 35.8428 20.2087 36.1064 19.8747 36.1064C19.5407 36.1064 19.2771 35.8428 19.2771 35.5088V27.7572H17.4842C17.1502 27.7572 16.8865 27.4935 16.8865 27.1596V22.3785C16.8865 22.0446 17.1502 21.7809 17.4842 21.7809H19.2771V14.0293C19.2771 13.6954 19.5407 13.4316 19.8747 13.4316C20.2087 13.4316 20.4723 13.6954 20.4723 14.0293V20.3044C21.07 19.2673 21.8785 18.3533 22.8277 17.6151C24.3921 16.4374 26.2553 15.8046 28.2239 15.8046C28.5579 15.8046 28.8215 16.0682 28.8215 16.4022C28.8215 16.7362 28.5579 16.9999 28.2239 16.9999C25.0952 16.9999 22.2652 18.9333 21.07 21.7809H22.2652C22.5992 21.7809 22.8628 22.0446 22.8628 22.3785V27.1596C22.8628 27.4935 22.5992 27.7572 22.2652 27.7572H21.07C22.2652 30.6047 25.0952 32.5382 28.2239 32.5382C28.5579 32.5382 28.8215 32.8019 28.8215 33.1358C28.8215 33.4698 28.5579 33.7335 28.2239 33.7335C26.2553 33.7335 24.3921 33.1007 22.8277 31.923C21.8609 31.2023 21.07 30.2707 20.4723 29.2337ZM28.2239 39.0945C27.5736 39.0945 27.0287 38.5672 27.0287 37.8993C27.0287 37.2313 27.556 36.704 28.2239 36.704C28.8919 36.704 29.4192 37.2313 29.4192 37.8993C29.4192 38.5672 28.8919 39.0945 28.2239 39.0945Z" fill="#F2C94C"/>
<path d="M34.446 29.5149V27.142V22.361V19.9529L28.0303 24.6284L34.446 29.5149Z" fill="#F2C94C"/>
<path d="M21.6668 22.9586H20.2255H18.0811V26.5444H21.6668V22.9586Z" fill="#F2C94C"/>
<path d="M49.1055 51.6095C48.4551 51.6095 47.9102 52.1369 47.9102 52.8048C47.9102 53.4727 48.4375 54 49.1055 54C49.7734 54 50.3007 53.4727 50.3007 52.8048C50.3007 52.1369 49.7734 51.6095 49.1055 51.6095Z" fill="#F2C94C"/>
<path d="M43.1465 2.32281V7.45541H48.2615L43.1465 2.32281Z" fill="#F2C94C"/>
<path d="M12.1229 47.4262V8.6507H8.53711V51.6096H41.9516V48.0238H12.7205C12.3865 48.0238 12.1229 47.7602 12.1229 47.4262Z" fill="#F2C94C"/>
<path d="M49.1233 43.2428H13.3184V46.8285H49.1233V43.2428Z" fill="#F2C94C"/>
<path d="M3.77328 36.6864C3.77328 35.7021 2.96472 34.8936 1.98039 34.8936C0.996063 34.8936 0.1875 35.7021 0.1875 36.6864C0.1875 37.6707 0.996063 38.4793 1.98039 38.4793C2.96472 38.4793 3.77328 37.6707 3.77328 36.6864Z" fill="#F2C94C"/>
<path d="M4.35347 45.3345C5.00383 45.3345 5.54872 45.8618 5.54872 46.5297C5.54872 47.1977 5.02141 47.725 4.35347 47.725C3.68554 47.725 3.1582 47.1977 3.1582 46.5297C3.1582 45.8618 3.68554 45.3345 4.35347 45.3345Z" fill="#F2C94C"/>
<path d="M3.17574 25.0502C3.8261 25.0502 4.37098 25.5775 4.37098 26.2455C4.37098 26.9134 3.84368 27.4407 3.17574 27.4407C2.5078 27.4407 1.98047 26.9134 1.98047 26.2455C1.98047 25.5775 2.5078 25.0502 3.17574 25.0502Z" fill="#F2C94C"/>
<path d="M52.0937 2.37555C52.744 2.37555 53.2889 2.90286 53.2889 3.57079C53.2889 4.23873 52.7616 4.76604 52.0937 4.76604C51.4257 4.76604 50.8984 4.23873 50.8984 3.57079C50.8984 2.90286 51.4257 2.37555 52.0937 2.37555Z" fill="#F2C94C"/>
<path d="M53.289 19.0915C53.9394 19.0915 54.4843 19.6189 54.4843 20.2868C54.4843 20.9547 53.9569 21.482 53.289 21.482C52.6211 21.482 52.0938 20.9547 52.0938 20.2868C52.0938 19.6189 52.6211 19.0915 53.289 19.0915Z" fill="#F2C94C"/>
<path d="M53.289 22.6597C53.9394 22.6597 54.4843 23.1871 54.4843 23.855C54.4843 24.523 53.9569 25.0503 53.289 25.0503C52.6211 25.0503 52.0938 24.523 52.0938 23.855C52.0938 23.1871 52.6211 22.6597 53.289 22.6597Z" fill="#F2C94C"/>
<path d="M53.289 26.2455C53.9394 26.2455 54.4843 26.7729 54.4843 27.4408C54.4843 28.1087 53.9569 28.6361 53.289 28.6361C52.6211 28.6361 52.0938 28.1087 52.0938 27.4408C52.0938 26.7729 52.6211 26.2455 53.289 26.2455Z" fill="#F2C94C"/>
<path d="M53.289 29.8313C53.9394 29.8313 54.4843 30.3586 54.4843 31.0265C54.4843 31.6945 53.9569 32.2218 53.289 32.2218C52.6211 32.2218 52.0938 31.6945 52.0938 31.0265C52.0938 30.3586 52.6211 29.8313 53.289 29.8313Z" fill="#F2C94C"/>
<path d="M3.17574 11.92C3.8261 11.92 4.37098 12.4473 4.37098 13.1153C4.37098 13.7832 3.84368 14.3105 3.17574 14.3105C2.5078 14.3105 1.98047 13.7832 1.98047 13.1153C1.98047 12.4473 2.5078 11.92 3.17574 11.92Z" fill="#F2C94C"/>
<path d="M1.69033 3.37065L0 5.06097L1.69035 6.75132L3.38068 5.06099L1.69033 3.37065Z" fill="#F2C94C"/>
<path d="M5.06144 3.37484L3.37109 5.06519L5.06144 6.75553L6.75179 5.06519L5.06144 3.37484Z" fill="#F2C94C"/>
<path d="M1.69424 3.96504e-05L0.00390625 1.69037L1.69425 3.38072L3.38458 1.69039L1.69424 3.96504e-05Z" fill="#F2C94C"/>
<path d="M5.06535 0.00410996L3.375 1.69446L5.06535 3.38481L6.7557 1.69446L5.06535 0.00410996Z" fill="#F2C94C"/>
</svg>
